<?xml version="1.0" standalone="no"?>
<!DOCTYPE svg PUBLIC "-//W3C//DTD SVG 20010904//EN"
 "http://www.w3.org/TR/2001/REC-SVG-20010904/DTD/svg10.dtd">
<svg version="1.0" xmlns="http://www.w3.org/2000/svg"
 width="195.000000pt" height="230.000000pt" viewBox="0 0 195.000000 230.000000"
 preserveAspectRatio="xMidYMid meet">

<g transform="translate(0.000000,230.000000) scale(0.100000,-0.100000)"
fill="#000000" stroke="none">
<path d="M852 2290 c-395 -56 -717 -341 -819 -727 -22 -83 -26 -120 -26 -238
0 -118 4 -155 26 -236 48 -183 158 -367 287 -481 l59 -51 -16 -31 c-9 -18 -16
-55 -16 -86 0 -84 41 -153 115 -191 105 -54 220 -22 284 79 l27 43 61 -8 c498
-64 956 242 1083 724 22 83 26 120 26 238 0 118 -4 155 -26 238 -110 416 -473
712 -900 731 -56 3 -130 1 -165 -4z m-432 -820 c46 -23 53 -55 20 -85 -18 -17
-24 -17 -62 -4 -56 18 -77 14 -110 -22 -30 -32 -34 -54 -17 -92 20 -45 65 -58
128 -37 42 14 44 13 62 -9 30 -37 24 -58 -23 -82 -55 -28 -141 -23 -190 10
-58 40 -72 68 -77 149 -3 64 0 77 22 111 50 75 164 103 247 61z m1126 12 c6
-4 30 -36 52 -70 l39 -64 37 61 c21 33 45 65 54 70 23 13 72 -14 72 -40 0 -11
-27 -60 -60 -109 -57 -84 -60 -93 -60 -149 0 -52 -3 -61 -21 -66 -11 -4 -31
-4 -45 -1 -22 6 -24 11 -24 69 0 59 -3 66 -60 152 -33 50 -60 95 -60 102 0 11
46 53 59 53 3 0 11 -4 17 -8z m-826 -22 c100 -51 123 -208 42 -293 -38 -41
-74 -57 -126 -57 -81 0 -134 33 -167 105 -59 127 24 265 159 265 33 0 67 -7
92 -20z m317 9 c34 -13 80 -55 99 -91 20 -39 18 -126 -5 -168 -10 -19 -36 -48
-58 -63 -33 -24 -53 -30 -120 -34 -126 -9 -123 -14 -123 180 0 114 4 167 12
175 15 15 156 16 195 1z m376 -19 c57 -39 80 -89 75 -165 -3 -49 -10 -70 -31
-99 -39 -51 -78 -68 -172 -74 -117 -7 -115 -9 -115 187 0 112 4 161 13 170 8
9 39 12 103 9 77 -3 96 -7 127 -28z"/>
<path d="M579 1361 c-47 -48 -38 -116 21 -146 52 -27 114 17 114 82 0 27 -7
42 -32 64 -41 37 -66 37 -103 0z"/>
<path d="M930 1295 c0 -84 0 -85 25 -85 65 0 116 60 96 112 -13 35 -48 58 -88
58 l-33 0 0 -85z"/>
<path d="M1270 1295 c0 -84 0 -85 25 -85 65 0 116 60 96 112 -13 35 -48 58
-88 58 l-33 0 0 -85z"/>
<path d="M192 127 c-31 -33 -29 -80 4 -106 34 -26 54 -26 88 0 19 15 26 30 26
55 0 67 -73 99 -118 51z"/>
</g>
</svg>
