<?xml version="1.0" standalone="no"?>
<!DOCTYPE svg PUBLIC "-//W3C//DTD SVG 20010904//EN"
 "http://www.w3.org/TR/2001/REC-SVG-20010904/DTD/svg10.dtd">
<svg version="1.0" xmlns="http://www.w3.org/2000/svg"
 width="224.000000pt" height="225.000000pt" viewBox="0 0 224.000000 225.000000"
 preserveAspectRatio="xMidYMid meet">

<g transform="translate(0.000000,225.000000) scale(0.100000,-0.100000)"
fill="#000000" stroke="none">
<path d="M770 2133 c0 -5 18 -53 40 -109 l41 -101 -306 -794 c-169 -437 -314
-802 -323 -813 -23 -24 -60 -43 -105 -51 l-37 -7 0 -54 0 -54 295 0 295 0 0
55 c0 52 -1 55 -25 55 -50 0 -127 23 -153 45 -43 37 -36 84 43 283 l68 172
365 -2 364 -3 64 -160 c72 -182 79 -226 40 -272 -26 -30 -82 -53 -132 -53 -65
0 -74 -8 -74 -61 l0 -49 465 0 465 0 0 53 0 53 -45 12 c-62 17 -93 38 -114 81
-10 20 -177 429 -371 909 l-353 872 -253 0 c-140 0 -254 -3 -254 -7z m335
-813 c75 -190 139 -351 142 -357 4 -10 -56 -13 -281 -13 -222 0 -286 3 -286
12 0 23 275 717 281 710 3 -4 68 -162 144 -352z"/>
</g>
</svg>
