<?xml version="1.0" standalone="no"?>
<!DOCTYPE svg PUBLIC "-//W3C//DTD SVG 20010904//EN"
 "http://www.w3.org/TR/2001/REC-SVG-20010904/DTD/svg10.dtd">
<svg version="1.0" xmlns="http://www.w3.org/2000/svg"
 width="225.000000pt" height="225.000000pt" viewBox="0 0 225.000000 225.000000"
 preserveAspectRatio="xMidYMid meet">

<g transform="translate(0.000000,225.000000) scale(0.100000,-0.100000)"
fill="#000000" stroke="none">
<path d="M1530 1400 l0 -50 60 0 60 0 0 50 0 50 -60 0 -60 0 0 -50z"/>
<path d="M904 1403 c8 -16 50 -86 94 -157 l79 -130 -35 -55 c-19 -31 -61 -94
-92 -141 -31 -47 -60 -91 -64 -97 -5 -10 6 -13 46 -13 l53 0 71 112 71 111 67
-112 67 -111 75 0 c72 0 74 1 64 21 -6 11 -50 84 -96 161 -47 77 -83 147 -80
155 3 7 44 72 91 144 47 71 85 132 85 135 0 2 -22 4 -48 4 l-49 0 -67 -100
c-37 -56 -70 -98 -75 -96 -4 3 -34 48 -65 101 l-57 95 -75 0 -75 0 15 -27z"/>
<path d="M100 1267 c-44 -12 -45 -13 -48 -56 -3 -39 -1 -43 15 -36 126 54 213
33 213 -51 l0 -31 -70 -6 c-132 -11 -200 -63 -200 -155 0 -86 48 -132 138
-132 36 0 59 7 86 25 20 14 39 25 41 25 2 0 16 -11 30 -25 22 -23 32 -26 83
-23 l57 3 3 40 c2 22 0 37 -4 33 -3 -4 -15 -3 -24 2 -16 9 -19 28 -22 158 -3
160 -10 183 -64 219 -33 21 -171 27 -234 10z m180 -297 c0 -46 -3 -52 -32 -70
-65 -40 -122 -14 -116 52 2 26 10 36 38 50 19 10 52 18 73 18 l37 0 0 -50z"/>
<path d="M765 1265 c-16 -9 -40 -28 -52 -43 l-23 -27 0 38 0 37 -65 0 -65 0 0
-230 0 -230 65 0 65 0 0 154 0 154 30 26 c33 28 86 42 119 31 20 -6 21 -3 21
49 l0 56 -32 0 c-18 0 -46 -7 -63 -15z"/>
<path d="M1530 1040 l0 -230 60 0 60 0 0 230 0 230 -60 0 -60 0 0 -230z"/>
<path d="M1770 1263 c0 -5 38 -107 84 -228 l84 -220 64 -3 64 -3 81 213 c45
117 85 221 89 231 5 14 0 17 -38 17 l-43 0 -54 -142 c-83 -218 -67 -215 -142
-24 l-64 166 -62 0 c-35 0 -63 -3 -63 -7z"/>
</g>
</svg>
