<?xml version="1.0" standalone="no"?>
<!DOCTYPE svg PUBLIC "-//W3C//DTD SVG 20010904//EN"
 "http://www.w3.org/TR/2001/REC-SVG-20010904/DTD/svg10.dtd">
<svg version="1.0" xmlns="http://www.w3.org/2000/svg"
 width="500.000000pt" height="500.000000pt" viewBox="0 0 500.000000 500.000000"
 preserveAspectRatio="xMidYMid meet">

<g transform="translate(0.000000,500.000000) scale(0.100000,-0.100000)"
fill="#000000" stroke="none">
<path d="M2245 4969 c-134 -14 -365 -63 -495 -105 -372 -118 -699 -315 -983
-593 -393 -383 -637 -862 -724 -1421 -25 -162 -25 -539 0 -700 86 -550 326
-1030 707 -1408 402 -400 911 -644 1485 -711 133 -16 435 -13 572 4 1027 134
1853 866 2103 1864 55 224 65 312 65 601 0 294 -10 380 -70 615 -88 342 -254
671 -479 951 -380 472 -948 794 -1566 889 -127 20 -487 28 -615 14z m1705
-838 c0 -13 -29 -44 -82 -85 -89 -71 -99 -142 -42 -307 l37 -104 -6 -155 c-4
-97 0 -236 10 -370 8 -118 13 -287 11 -375 -6 -222 -26 -265 -122 -265 -59 0
-97 20 -113 59 -23 54 -31 230 -21 460 5 113 10 310 11 436 l2 230 33 77 c34
80 44 168 19 168 -17 0 -104 -59 -218 -149 -52 -42 -129 -102 -171 -135 -102
-78 -107 -90 -84 -174 78 -283 80 -307 41 -430 -41 -131 -98 -205 -250 -324
-128 -100 -172 -172 -163 -265 10 -100 69 -173 240 -295 147 -105 209 -166
252 -247 98 -186 101 -440 9 -614 -43 -82 -183 -214 -278 -263 -410 -213 -987
-182 -1320 71 -127 97 -186 198 -193 330 -5 93 17 173 73 266 152 249 428 377
873 405 103 6 112 8 98 23 -32 35 -79 155 -89 224 -8 62 -7 80 10 128 l19 56
-103 7 c-391 25 -613 223 -673 598 l-13 78 -345 2 -346 3 485 420 c266 231
510 444 543 473 l59 52 903 0 c521 0 904 -4 904 -9z"/>
<path d="M2347 3719 c-85 -20 -168 -80 -210 -152 -61 -103 -86 -238 -67 -361
38 -249 185 -468 385 -573 58 -31 82 -37 148 -41 72 -4 82 -2 143 28 173 85
263 335 208 583 -8 40 -38 119 -66 176 -43 90 -61 115 -136 190 -137 136 -264
183 -405 150z"/>
<path d="M2398 1975 c-233 -39 -414 -147 -482 -288 -15 -30 -32 -87 -38 -126
-37 -247 128 -449 437 -533 115 -31 355 -31 469 0 290 80 435 266 398 510 -16
103 -53 174 -126 247 -74 73 -149 118 -258 156 -146 49 -253 59 -400 34z"/>
</g>
</svg>
