<?xml version="1.0" standalone="no"?>
<!DOCTYPE svg PUBLIC "-//W3C//DTD SVG 20010904//EN"
 "http://www.w3.org/TR/2001/REC-SVG-20010904/DTD/svg10.dtd">
<svg version="1.0" xmlns="http://www.w3.org/2000/svg"
 width="225.000000pt" height="225.000000pt" viewBox="0 0 225.000000 225.000000"
 preserveAspectRatio="xMidYMid meet">

<g transform="translate(0.000000,225.000000) scale(0.100000,-0.100000)"
fill="#000000" stroke="none">
<path d="M607 1740 c-73 -13 -131 -46 -187 -106 -84 -93 -97 -185 -55 -399 38
-198 -12 -295 -153 -295 -92 0 -181 -62 -202 -141 -16 -57 -6 -141 22 -191 44
-78 150 -122 237 -98 49 13 112 66 135 114 22 47 20 130 -5 201 -24 70 -21
120 11 164 89 126 385 134 490 14 25 -28 30 -42 30 -86 0 -30 -9 -70 -20 -96
-21 -46 -27 -132 -11 -174 15 -39 70 -96 115 -119 87 -45 225 -21 287 49 65
75 75 150 34 251 -30 74 -31 94 -5 146 35 72 131 116 254 116 97 0 172 -26
228 -80 61 -59 66 -98 26 -215 -29 -87 -9 -185 49 -237 28 -25 104 -58 137
-58 79 0 165 54 197 124 23 51 25 143 4 194 -33 79 -86 112 -193 122 -83 8
-117 27 -145 81 -16 29 -18 50 -13 134 3 55 12 127 22 160 44 163 -21 319
-168 397 -37 20 -58 23 -143 23 -139 0 -167 -16 -304 -175 -30 -34 -68 -71
-85 -81 -34 -21 -96 -25 -129 -8 -12 6 -71 61 -132 123 -93 96 -118 116 -160
129 -70 22 -113 26 -168 17z m584 -361 c149 -50 202 -232 101 -349 -97 -114
-268 -107 -349 13 -60 89 -53 190 18 271 59 66 149 92 230 65z"/>
</g>
</svg>
