<?xml version="1.0" standalone="no"?>
<!DOCTYPE svg PUBLIC "-//W3C//DTD SVG 20010904//EN"
 "http://www.w3.org/TR/2001/REC-SVG-20010904/DTD/svg10.dtd">
<svg version="1.0" xmlns="http://www.w3.org/2000/svg"
 width="225.000000pt" height="225.000000pt" viewBox="0 0 225.000000 225.000000"
 preserveAspectRatio="xMidYMid meet">

<g transform="translate(0.000000,225.000000) scale(0.100000,-0.100000)"
fill="#000000" stroke="none">
<path d="M975 2239 c-367 -46 -713 -302 -871 -643 -287 -622 53 -1360 714
-1552 244 -70 532 -50 767 56 172 77 372 246 473 400 268 406 250 926 -43
1310 -60 78 -188 197 -272 253 -222 148 -495 210 -768 176z m354 -184 c163
-34 323 -120 449 -239 131 -125 223 -280 269 -454 35 -134 37 -326 5 -455 -89
-356 -353 -621 -709 -709 -124 -31 -313 -30 -437 0 -186 46 -338 134 -468 271
-178 185 -262 397 -261 656 0 145 15 229 63 353 68 176 229 364 398 466 95 56
247 111 347 125 91 13 250 6 344 -14z"/>
<path d="M670 1813 c-60 -22 -81 -100 -37 -141 23 -22 68 -29 102 -16 25 10
47 62 40 95 -9 41 -68 75 -105 62z"/>
<path d="M610 1085 l0 -475 85 0 85 0 0 475 0 475 -85 0 -85 0 0 -475z"/>
<path d="M950 1085 l0 -475 234 0 c204 0 242 2 297 20 219 67 360 289 329 514
-14 98 -66 203 -132 269 -122 121 -212 147 -515 147 l-213 0 0 -475z m510 274
c78 -36 114 -71 149 -141 27 -52 31 -72 31 -137 0 -98 -27 -159 -99 -224 -72
-64 -121 -77 -288 -77 l-133 0 0 298 c0 164 3 302 8 306 4 5 68 6 142 4 119
-3 142 -7 190 -29z"/>
</g>
</svg>
