<?xml version="1.0" standalone="no"?>
<!DOCTYPE svg PUBLIC "-//W3C//DTD SVG 20010904//EN"
 "http://www.w3.org/TR/2001/REC-SVG-20010904/DTD/svg10.dtd">
<svg version="1.0" xmlns="http://www.w3.org/2000/svg"
 width="512.000000pt" height="512.000000pt" viewBox="0 0 512.000000 512.000000"
 preserveAspectRatio="xMidYMid meet">

<g transform="translate(0.000000,512.000000) scale(0.100000,-0.100000)"
fill="#000000" stroke="none">
<path d="M854 4676 c-32 -32 -34 -38 -34 -99 l0 -65 -287 -4 c-286 -3 -288 -3
-343 -29 -77 -36 -124 -80 -157 -147 l-28 -57 0 -1815 0 -1815 24 -52 c30 -68
102 -134 174 -162 l58 -21 2299 0 2299 0 58 21 c72 28 144 94 174 162 l24 52
0 1815 0 1815 -28 57 c-33 67 -80 111 -157 147 -55 26 -57 26 -342 29 l-288 4
0 65 c0 61 -2 67 -34 99 l-34 34 -437 0 c-302 0 -443 -3 -458 -11 -44 -22 -57
-50 -57 -121 l0 -68 -105 0 -105 0 0 60 c0 71 -15 107 -51 126 -37 19 -873 21
-914 2 -38 -17 -55 -58 -55 -128 l0 -60 -105 0 -105 0 0 68 c0 71 -13 99 -57
121 -15 8 -156 11 -458 11 l-437 0 -34 -34z m-34 -1461 c0 -1180 -3 -1127 55
-1153 17 -8 84 -12 191 -12 l164 0 -2 -717 -3 -718 -477 0 -478 0 -32 33 -33
32 -3 1751 c-1 1215 1 1763 8 1790 8 28 21 46 43 59 30 18 52 20 300 20 l267
0 0 -1085z m1230 0 c0 -1180 -3 -1127 55 -1153 17 -8 84 -12 191 -12 l164 0
-2 -717 -3 -718 -510 0 -510 0 -3 718 -2 717 174 0 174 0 31 31 31 31 0 1094
0 1094 105 0 105 0 0 -1085z m1230 -9 l0 -1094 31 -31 31 -31 174 0 174 0 -2
-717 -3 -718 -510 0 -510 0 -3 718 -2 717 164 0 c107 0 174 4 191 12 58 26 55
-27 55 1153 l0 1085 105 0 105 0 0 -1094z m1587 1074 c22 -13 35 -31 43 -59 7
-27 9 -575 8 -1790 l-3 -1751 -33 -32 -32 -33 -478 0 -477 0 -3 718 -2 717
164 0 c107 0 174 4 191 12 58 26 55 -27 55 1153 l0 1085 268 0 c247 0 269 -2
299 -20z"/>
</g>
</svg>
