<?xml version="1.0" standalone="no"?>
<!DOCTYPE svg PUBLIC "-//W3C//DTD SVG 20010904//EN"
 "http://www.w3.org/TR/2001/REC-SVG-20010904/DTD/svg10.dtd">
<svg version="1.0" xmlns="http://www.w3.org/2000/svg"
 width="512.000000pt" height="512.000000pt" viewBox="0 0 512.000000 512.000000"
 preserveAspectRatio="xMidYMid meet">

<g transform="translate(0.000000,512.000000) scale(0.100000,-0.100000)"
fill="#000000" stroke="none">
<path d="M800 2560 l0 -1760 1760 0 1760 0 0 1760 0 1760 -1760 0 -1760 0 0
-1760z m3200 0 l0 -1440 -1440 0 -1440 0 0 1440 0 1440 1440 0 1440 0 0 -1440z"/>
<path d="M2985 3511 c-90 -24 -151 -78 -180 -160 -21 -62 -21 -357 1 -430 32
-111 119 -167 256 -165 95 1 156 23 201 73 47 53 60 98 61 221 l1 105 -122 3
-123 3 0 -46 0 -45 70 0 70 0 0 -37 c0 -46 -29 -110 -61 -140 -35 -31 -102
-47 -143 -33 -42 14 -84 57 -96 101 -6 18 -10 103 -10 187 0 169 6 194 60 232
75 54 159 46 222 -21 l38 -39 40 26 c22 15 40 30 40 33 0 22 -56 81 -99 105
-40 21 -69 28 -124 31 -40 3 -85 1 -102 -4z"/>
<path d="M1878 3022 l-278 -2 0 -34 c0 -33 2 -34 47 -41 26 -4 59 -13 73 -20
55 -28 55 -29 58 -567 3 -513 -2 -596 -36 -630 -9 -10 -44 -23 -77 -31 -56
-13 -60 -15 -63 -45 l-3 -31 281 0 281 0 -3 32 c-3 31 -4 32 -68 40 -133 16
-140 34 -140 332 l0 226 86 -3 86 -3 85 -140 c182 -300 295 -435 398 -475 68
-26 173 -36 225 -23 29 8 35 14 38 40 3 28 0 31 -32 36 -51 8 -99 34 -153 81
-81 71 -258 305 -347 458 -26 45 -27 48 -9 54 107 36 204 117 256 217 30 58
32 68 32 167 0 95 -3 111 -28 162 -59 120 -189 190 -372 200 -33 2 -185 2
-337 0z m419 -135 c90 -47 132 -123 133 -239 0 -127 -57 -220 -165 -270 -42
-19 -71 -23 -182 -26 l-133 -4 0 287 0 287 148 -4 c137 -3 151 -5 199 -31z"/>
</g>
</svg>
