<?xml version="1.0" standalone="no"?>
<!DOCTYPE svg PUBLIC "-//W3C//DTD SVG 20010904//EN"
 "http://www.w3.org/TR/2001/REC-SVG-20010904/DTD/svg10.dtd">
<svg version="1.0" xmlns="http://www.w3.org/2000/svg"
 width="3508.000000pt" height="2480.000000pt" viewBox="0 0 3508.000000 2480.000000"
 preserveAspectRatio="xMidYMid meet">

<g transform="translate(0.000000,2480.000000) scale(0.100000,-0.100000)"
fill="#000000" stroke="none">
<path d="M9922 21315 c-59 -18 -106 -57 -139 -113 l-28 -47 -3 -750 c-3 -813
-4 -795 52 -868 14 -19 50 -47 78 -63 l53 -29 475 -6 c511 -6 498 -4 656 -64
273 -103 491 -363 560 -670 20 -89 21 -151 16 -1065 l-2 -525 -198 -78 c-551
-220 -1113 -496 -1587 -780 -296 -177 -726 -471 -760 -519 -9 -14 -15 -44 -15
-75 0 -83 25 -103 300 -241 484 -244 981 -448 1557 -641 238 -79 669 -211 691
-211 9 0 12 -43 12 -155 0 -85 -4 -155 -8 -155 -15 0 -350 98 -567 166 -827
260 -1646 609 -2243 956 l-102 60 -43 -35 c-142 -116 -476 -456 -632 -642
-693 -828 -1030 -1714 -1002 -2635 4 -107 11 -238 17 -290 100 -853 493 -1640
1191 -2387 162 -173 473 -464 526 -492 49 -25 100 -14 211 48 656 361 1516
705 2431 972 112 32 208 59 212 59 5 0 9 -70 9 -155 0 -112 -3 -155 -12 -155
-6 0 -111 -30 -232 -66 -730 -218 -1415 -484 -1999 -775 -155 -78 -184 -99
-197 -149 -20 -73 -1 -112 85 -176 337 -248 946 -603 1435 -835 507 -241 1206
-519 1303 -519 l44 0 42 -103 c64 -151 228 -483 316 -637 790 -1384 2141
-2416 3670 -2804 489 -124 871 -173 1410 -183 355 -6 598 4 865 37 1042 130
2004 549 2820 1229 138 116 449 418 568 554 443 505 803 1107 1017 1701 l32
89 269 92 c986 337 1825 742 2574 1241 328 219 358 247 330 313 -11 28 -42 46
-253 152 -1005 506 -2220 899 -3641 1180 -266 52 -302 56 -329 36 -11 -7 -44
-99 -87 -237 -260 -846 -630 -1566 -1121 -2178 -359 -448 -758 -802 -1218
-1082 -96 -58 -127 -82 -134 -104 -13 -40 13 -93 50 -102 74 -19 971 95 1521
192 112 19 206 33 209 30 10 -10 -153 -211 -267 -329 -391 -406 -891 -683
-1435 -796 -229 -47 -334 -56 -665 -55 -274 0 -334 3 -460 22 -517 79 -954
268 -1354 585 -116 92 -334 307 -423 417 -69 86 -193 260 -193 271 0 5 39 -10
88 -32 325 -151 703 -258 972 -275 75 -5 89 -3 118 15 66 42 62 -103 62 2012
0 1774 -1 1924 -17 1956 -9 20 -30 44 -47 55 -30 19 -44 19 -336 14 -339 -7
-629 -19 -978 -41 -128 -8 -249 -15 -268 -15 l-34 0 0 144 c0 80 3 147 8 149
22 14 824 55 1255 64 302 6 321 7 350 27 18 12 40 37 49 56 17 33 18 115 18
1280 0 1166 -1 1247 -18 1279 -9 19 -30 44 -45 55 -27 20 -47 21 -335 28 -440
10 -1231 49 -1269 63 -10 3 -13 43 -13 151 l0 147 98 -6 c486 -32 1080 -57
1354 -57 l158 0 32 29 33 29 3 2083 2 2082 -92 -7 c-498 -37 -1023 -222 -1486
-522 -45 -30 -87 -54 -93 -54 -7 0 -9 189 -6 598 5 654 4 647 68 813 85 222
296 432 513 514 158 60 144 58 661 64 l480 6 53 29 c28 16 64 44 78 63 56 73
55 55 52 868 l-3 750 -28 47 c-34 58 -81 95 -143 114 -69 20 -7486 20 -7552
-1z m7218 -910 l0 -415 -892 0 c-544 0 -938 -4 -1008 -11 -672 -61 -1260 -492
-1521 -1114 -18 -44 -36 -84 -40 -88 -4 -5 -12 8 -19 30 -24 74 -120 260 -188
363 -276 418 -698 694 -1207 792 -106 21 -143 21 -1057 25 l-948 4 0 415 0
414 3440 0 3440 0 0 -415z m-5035 -625 c396 -44 711 -195 991 -474 279 -280
430 -595 474 -991 6 -59 10 -1773 10 -4980 0 -3249 4 -4937 10 -5030 58 -781
296 -1477 725 -2120 673 -1006 1716 -1683 2903 -1884 265 -45 410 -55 772 -55
370 0 509 10 798 60 1076 183 2073 790 2722 1659 183 246 283 408 430 699
l105 210 70 17 c38 10 70 17 72 16 5 -6 -158 -331 -222 -442 -353 -619 -847
-1164 -1431 -1578 -677 -480 -1433 -767 -2304 -874 -185 -23 -959 -26 -1160
-5 -1239 130 -2323 622 -3208 1455 -1016 955 -1615 2236 -1702 3637 -6 109
-10 1768 -10 4849 0 5121 4 4771 -56 4979 -32 110 -118 291 -192 401 -83 125
-253 291 -387 380 -60 40 -112 75 -114 77 -9 9 620 3 704 -6z m3885 6 c0 -2
-28 -20 -62 -41 -333 -203 -564 -523 -656 -908 l-27 -112 0 -5395 c0 -5124 1
-5401 18 -5520 57 -398 152 -707 324 -1052 442 -884 1260 -1527 2219 -1742
279 -63 364 -71 814 -71 383 0 426 2 560 23 358 56 644 143 946 287 625 297
1152 799 1476 1405 l63 118 58 15 c35 9 57 11 57 5 0 -17 -118 -234 -202 -372
-174 -284 -355 -513 -598 -757 -291 -292 -535 -481 -871 -675 -720 -416 -1579
-607 -2444 -544 -1295 94 -2447 761 -3174 1835 -217 321 -371 635 -496 1010
-97 291 -154 547 -192 860 -17 143 -18 387 -18 5180 l0 5030 22 103 c96 441
337 803 698 1044 215 144 481 241 739 268 71 7 746 13 746 6z"/>
<path d="M19726 21315 c-59 -21 -108 -65 -138 -125 l-28 -54 0 -750 0 -751 24
-50 c13 -28 38 -64 57 -79 73 -62 59 -60 599 -67 473 -5 498 -6 568 -27 354
-107 606 -386 667 -739 12 -67 15 -180 15 -525 0 -414 -1 -439 -17 -434 -110
32 -731 148 -1068 200 -361 56 -927 126 -1017 126 -48 0 -95 -39 -104 -87 -11
-61 12 -91 125 -161 290 -181 618 -455 875 -730 648 -695 1124 -1570 1426
-2622 65 -227 79 -250 146 -250 78 0 726 138 1174 250 1010 253 1901 571 2660
950 370 184 390 198 390 270 0 56 -22 79 -204 209 -735 523 -1665 997 -2628
1337 l-138 49 0 687 c0 562 3 699 15 755 46 219 162 409 332 544 106 85 197
128 383 185 14 4 243 10 510 13 472 6 486 7 525 28 47 25 95 74 121 123 18 33
19 73 19 795 l0 760 -30 54 c-32 58 -90 103 -155 121 -22 6 -934 10 -2550 10
-2113 -1 -2521 -3 -2554 -15z m4784 -909 l0 -414 -522 -5 c-478 -4 -531 -6
-618 -25 -290 -62 -527 -189 -730 -392 -114 -114 -193 -223 -264 -363 l-53
-104 -56 111 c-194 382 -546 650 -985 747 -92 21 -128 22 -659 26 l-563 5 0
407 c0 224 3 411 7 414 3 4 1005 7 2225 7 l2218 0 0 -414z m-3098 -692 c380
-136 661 -445 776 -854 l26 -95 4 -617 c2 -340 1 -618 -1 -618 -2 0 -26 6 -53
14 -27 8 -74 21 -106 30 l-56 16 -5 547 c-4 450 -8 563 -21 633 -73 379 -280
703 -590 921 -38 27 -64 49 -58 49 6 0 44 -12 84 -26z m1808 -7 c0 -2 -36 -32
-81 -67 -255 -201 -435 -493 -511 -828 -21 -93 -22 -122 -25 -745 -4 -566 -6
-648 -19 -643 -8 3 -46 15 -84 27 l-70 21 0 623 c0 512 3 637 15 701 57 298
234 574 488 760 34 25 111 70 170 100 106 53 117 57 117 51z"/>
<path d="M17720 15946 l0 -2083 28 -28 27 -28 340 7 c1051 20 2123 112 3160
272 220 33 207 29 199 62 -26 106 -94 342 -141 486 -562 1731 -1710 2985
-3033 3310 -191 48 -433 86 -542 86 l-38 0 0 -2084z"/>
<path d="M26288 15367 c-35 -19 -119 -65 -188 -102 -995 -546 -2412 -1023
-3935 -1325 -176 -35 -200 -44 -239 -90 -49 -59 -52 -91 -23 -272 154 -956
146 -1949 -23 -2848 -22 -118 -25 -201 -9 -233 14 -28 59 -76 81 -88 9 -5 117
-30 240 -55 1223 -248 2255 -562 3183 -966 168 -74 588 -278 764 -372 115 -62
164 -70 233 -38 85 39 519 464 718 702 537 643 855 1304 965 2007 174 1106
-184 2192 -1045 3173 -163 186 -482 497 -534 521 -62 28 -115 24 -188 -14z"/>
<path d="M21370 13799 c-160 -33 -865 -125 -1300 -168 -673 -68 -1587 -121
-2082 -121 -180 0 -215 -9 -248 -62 -20 -33 -20 -47 -20 -1298 0 -1251 0
-1265 20 -1298 32 -52 69 -62 237 -62 192 0 645 -16 993 -35 723 -40 1448
-113 2144 -215 149 -22 286 -40 304 -40 46 0 89 25 108 62 30 58 106 517 138
838 54 528 54 1118 0 1645 -30 295 -86 650 -110 696 -29 57 -94 77 -184 58z"/>
<path d="M17783 10470 c-68 -41 -63 124 -63 -2020 l0 -1940 34 -38 35 -37 88
1 c266 3 731 138 1084 315 614 308 1189 841 1634 1514 305 462 553 982 739
1554 78 238 84 272 59 321 -31 59 -54 66 -393 114 -850 121 -1690 194 -2620
226 -458 15 -558 14 -597 -10z"/>
</g>
</svg>
